<svg width="156" height="20" viewBox="0 0 156 20" fill="none" xmlns="http://www.w3.org/2000/svg">
<path d="M7.88792 15.4997L2.98418 15.4997L2.08086 18L0.532314 18L4.59725 6.82142L6.29098 6.82142L10.3398 18L8.79124 18L7.88792 15.4997ZM7.46852 14.3061L5.43605 8.62806L3.40358 14.3061L7.46852 14.3061ZM28.4776 18L27.0097 18L21.1059 9.04745L21.1059 18L19.638 18L19.638 6.74076L21.1059 6.74076L27.0097 15.6772L27.0097 6.74076L28.4776 6.74076L28.4776 18ZM39.9744 6.75689L39.9744 18L38.5065 18L38.5065 6.75689L39.9744 6.75689Z" fill="#121212"/>
<path d="M61.4072 6.83755L61.4072 18L59.9393 18L59.9393 9.67655L56.2293 18L55.1969 18L51.4707 9.66042L51.4707 18L50.0028 18L50.0028 6.83755L51.5836 6.83755L55.7131 16.0643L59.8425 6.83755L61.4072 6.83755ZM95.8098 15.4997L90.906 15.4997L90.0027 18L88.4542 18L92.5191 6.82142L94.2128 6.82142L98.2616 18L96.7131 18L95.8098 15.4997ZM95.3904 14.3061L93.3579 8.62806L91.3254 14.3061L95.3904 14.3061ZM109.028 16.8063L112.964 16.8063L112.964 18L107.56 18L107.56 6.75689L109.028 6.75689L109.028 16.8063ZM116.603 18.0968C116.324 18.0968 116.087 18 115.894 17.8064C115.7 17.6129 115.603 17.3763 115.603 17.0967C115.603 16.8171 115.7 16.5805 115.894 16.3869C116.087 16.1934 116.324 16.0966 116.603 16.0966C116.872 16.0966 117.098 16.1934 117.281 16.3869C117.474 16.5805 117.571 16.8171 117.571 17.0967C117.571 17.3763 117.474 17.6129 117.281 17.8064C117.098 18 116.872 18.0968 116.603 18.0968Z" fill="#9C2627"/>
<path d="M72 7H79" stroke="#9C2627" stroke-width="1.5"/>
<path d="M72 12H79" stroke="#9C2627" stroke-width="1.5"/>
<path d="M72 17H79" stroke="#9C2627" stroke-width="1.5"/>
</svg>
